<?xml version="1.0" standalone="no"?>
<!DOCTYPE svg PUBLIC "-//W3C//DTD SVG 20010904//EN"
 "http://www.w3.org/TR/2001/REC-SVG-20010904/DTD/svg10.dtd">
<svg version="1.0" xmlns="http://www.w3.org/2000/svg"
 width="332.000000pt" height="80.000000pt" viewBox="0 0 332.000000 80.000000"
 preserveAspectRatio="xMidYMid meet">

<g transform="translate(0.000000,80.000000) scale(0.100000,-0.100000)"
fill="white" stroke="none">
<path d="M10 400 l0 -390 475 0 475 0 0 390 0 390 -475 0 -475 0 0 -390z m266
65 c26 -41 48 -75 50 -75 1 0 23 34 50 75 74 113 84 106 84 -55 0 -107 -3
-130 -15 -130 -11 0 -15 20 -17 98 l-3 97 -43 -62 c-23 -35 -49 -63 -56 -63
-7 0 -32 28 -55 63 l-41 62 0 -97 c0 -91 -1 -98 -20 -98 -19 0 -20 7 -20 130
0 122 1 130 19 130 13 0 35 -24 67 -75z m455 52 c22 -15 39 -38 49 -65 13 -37
13 -47 0 -84 -22 -61 -56 -82 -146 -86 l-74 -4 0 131 0 131 69 0 c54 0 75 -5
102 -23z"/>
<path d="M600 410 l0 -103 52 5 c65 7 98 39 98 98 0 59 -33 91 -98 98 l-52 5
0 -103z"/>
<path d="M2313 531 c-50 -23 -73 -63 -73 -127 0 -41 5 -51 39 -85 38 -39 54
-44 126 -39 69 4 118 67 112 143 -5 54 -32 91 -84 113 -43 19 -70 17 -120 -5z
m114 -73 c18 -15 16 -73 -3 -92 -19 -19 -77 -21 -92 -3 -6 6 -13 24 -17 39
-10 39 34 83 73 73 15 -4 33 -11 39 -17z"/>
<path d="M1010 410 l0 -130 70 0 c123 0 180 41 180 130 0 92 -51 130 -174 130
l-76 0 0 -130z m164 38 c9 -12 16 -30 16 -40 0 -28 -37 -58 -70 -58 l-30 0 0
60 0 60 34 0 c25 0 39 -7 50 -22z"/>
<path d="M1310 410 l0 -130 90 0 90 0 0 30 c0 30 -1 30 -55 30 -48 0 -55 2
-55 20 0 17 7 20 45 20 43 0 45 1 45 30 0 29 -2 30 -45 30 -38 0 -45 3 -45 20
0 17 7 20 50 20 49 0 50 1 50 30 l0 30 -85 0 -85 0 0 -130z"/>
<path d="M1510 534 c0 -3 21 -62 46 -130 l47 -124 37 0 37 0 47 123 c25 68 46
126 46 130 0 4 -17 7 -38 7 l-38 0 -24 -70 c-13 -38 -27 -70 -30 -70 -3 0 -16
32 -29 70 l-22 70 -40 0 c-21 0 -39 -3 -39 -6z"/>
<path d="M1808 518 c-2 -13 -2 -71 0 -130 l3 -108 90 0 89 0 0 30 c0 30 -1 30
-55 30 -48 0 -55 2 -55 20 0 17 7 20 45 20 43 0 45 1 45 30 0 29 -2 30 -45 30
-38 0 -45 3 -45 20 0 17 7 20 50 20 49 0 50 1 50 30 l0 30 -84 0 c-80 0 -85
-1 -88 -22z"/>
<path d="M2030 410 l0 -130 90 0 90 0 0 35 0 35 -50 0 -50 0 0 95 0 95 -40 0
-40 0 0 -130z"/>
<path d="M2560 410 l0 -130 40 0 c38 0 40 2 40 30 0 27 4 30 42 37 28 4 53 17
72 35 25 25 28 34 23 71 -9 67 -40 87 -138 87 l-79 0 0 -130z m128 61 c8 -4
12 -19 10 -32 -2 -18 -10 -25 -30 -27 -26 -3 -28 -1 -28 32 0 37 17 47 48 27z"/>
<path d="M2820 410 l0 -130 90 0 90 0 0 30 c0 30 -1 30 -55 30 -48 0 -55 2
-55 20 0 17 7 20 45 20 25 0 45 3 46 8 6 55 8 52 -43 52 -41 0 -48 3 -48 20 0
17 7 20 50 20 28 0 50 3 51 8 0 4 2 17 5 30 4 21 2 22 -86 22 l-90 0 0 -130z"/>
<path d="M3050 410 l0 -130 35 0 c33 0 35 2 35 35 0 25 5 35 15 35 9 0 23 -16
32 -35 15 -32 20 -35 60 -35 l43 0 -22 45 c-21 44 -21 45 -3 65 31 34 26 96
-8 126 -25 21 -38 24 -108 24 l-79 0 0 -130z m139 46 c4 -22 -23 -46 -51 -46
-14 0 -18 8 -18 36 0 34 1 35 32 32 23 -2 34 -9 37 -22z"/>
</g>
</svg>
